<mxfile host="app.diagrams.net" modified="2024-03-23T04:34:02.235Z" agent="Mozilla/5.0 (Macintosh; Intel Mac OS X 10_15_7) AppleWebKit/537.36 (KHTML, like Gecko) Chrome/123.0.0.0 Safari/537.36" etag="0mFru8p0joWIcHJVEr4a" version="24.0.8" type="github">
  <diagram name="페이지-1" id="WPOqP1bTp_Iol4xRQsoV">
    <mxGraphModel dx="1363" dy="971" grid="0" gridSize="10" guides="1" tooltips="1" connect="1" arrows="1" fold="1" page="0" pageScale="1" pageWidth="1600" pageHeight="900" math="0" shadow="0">
      <root>
        <mxCell id="0" />
        <mxCell id="1" parent="0" />
        <mxCell id="W7rrW-tQhRegGtTrBUPO-2" style="edgeStyle=orthogonalEdgeStyle;rounded=0;orthogonalLoop=1;jettySize=auto;html=1;endArrow=none;endFill=0;" edge="1" parent="1" source="xTMbIJmY8bYaw_9mGzrM-14" target="W7rrW-tQhRegGtTrBUPO-1">
          <mxGeometry relative="1" as="geometry" />
        </mxCell>
        <mxCell id="xTMbIJmY8bYaw_9mGzrM-14" value="Employee" style="whiteSpace=wrap;html=1;align=center;" parent="1" vertex="1">
          <mxGeometry x="296" y="365" width="100" height="40" as="geometry" />
        </mxCell>
        <mxCell id="xTMbIJmY8bYaw_9mGzrM-23" style="rounded=0;orthogonalLoop=1;jettySize=auto;html=1;entryX=0.5;entryY=0;entryDx=0;entryDy=0;endArrow=none;endFill=0;" parent="1" source="xTMbIJmY8bYaw_9mGzrM-15" target="xTMbIJmY8bYaw_9mGzrM-14" edge="1">
          <mxGeometry relative="1" as="geometry" />
        </mxCell>
        <mxCell id="xTMbIJmY8bYaw_9mGzrM-15" value="zip_code" style="ellipse;whiteSpace=wrap;html=1;align=center;" parent="1" vertex="1">
          <mxGeometry x="294" y="293" width="74" height="36" as="geometry" />
        </mxCell>
        <mxCell id="xTMbIJmY8bYaw_9mGzrM-27" style="rounded=0;orthogonalLoop=1;jettySize=auto;html=1;endArrow=none;endFill=0;entryX=0.5;entryY=0;entryDx=0;entryDy=0;" parent="1" source="xTMbIJmY8bYaw_9mGzrM-16" target="xTMbIJmY8bYaw_9mGzrM-14" edge="1">
          <mxGeometry relative="1" as="geometry" />
        </mxCell>
        <mxCell id="xTMbIJmY8bYaw_9mGzrM-16" value="phone_number" style="ellipse;whiteSpace=wrap;html=1;align=center;" parent="1" vertex="1">
          <mxGeometry x="209" y="291" width="74" height="36" as="geometry" />
        </mxCell>
        <mxCell id="xTMbIJmY8bYaw_9mGzrM-29" style="rounded=0;orthogonalLoop=1;jettySize=auto;html=1;endArrow=none;endFill=0;" parent="1" source="xTMbIJmY8bYaw_9mGzrM-17" target="xTMbIJmY8bYaw_9mGzrM-14" edge="1">
          <mxGeometry relative="1" as="geometry" />
        </mxCell>
        <mxCell id="xTMbIJmY8bYaw_9mGzrM-17" value="&lt;u&gt;number&lt;/u&gt;" style="ellipse;whiteSpace=wrap;html=1;align=center;" parent="1" vertex="1">
          <mxGeometry x="164" y="377" width="74" height="36" as="geometry" />
        </mxCell>
        <mxCell id="xTMbIJmY8bYaw_9mGzrM-25" style="rounded=0;orthogonalLoop=1;jettySize=auto;html=1;endArrow=none;endFill=0;" parent="1" source="xTMbIJmY8bYaw_9mGzrM-18" target="xTMbIJmY8bYaw_9mGzrM-22" edge="1">
          <mxGeometry relative="1" as="geometry" />
        </mxCell>
        <mxCell id="xTMbIJmY8bYaw_9mGzrM-18" value="last" style="ellipse;whiteSpace=wrap;html=1;align=center;" parent="1" vertex="1">
          <mxGeometry x="428" y="241" width="74" height="36" as="geometry" />
        </mxCell>
        <mxCell id="xTMbIJmY8bYaw_9mGzrM-24" style="rounded=0;orthogonalLoop=1;jettySize=auto;html=1;endArrow=none;endFill=0;" parent="1" source="xTMbIJmY8bYaw_9mGzrM-19" target="xTMbIJmY8bYaw_9mGzrM-22" edge="1">
          <mxGeometry relative="1" as="geometry" />
        </mxCell>
        <mxCell id="xTMbIJmY8bYaw_9mGzrM-19" value="first" style="ellipse;whiteSpace=wrap;html=1;align=center;" parent="1" vertex="1">
          <mxGeometry x="338" y="241" width="74" height="36" as="geometry" />
        </mxCell>
        <mxCell id="xTMbIJmY8bYaw_9mGzrM-28" style="rounded=0;orthogonalLoop=1;jettySize=auto;html=1;entryX=0.5;entryY=0;entryDx=0;entryDy=0;endArrow=none;endFill=0;" parent="1" source="xTMbIJmY8bYaw_9mGzrM-20" target="xTMbIJmY8bYaw_9mGzrM-14" edge="1">
          <mxGeometry relative="1" as="geometry" />
        </mxCell>
        <mxCell id="xTMbIJmY8bYaw_9mGzrM-20" value="email" style="ellipse;whiteSpace=wrap;html=1;align=center;" parent="1" vertex="1">
          <mxGeometry x="169" y="332" width="74" height="36" as="geometry" />
        </mxCell>
        <mxCell id="xTMbIJmY8bYaw_9mGzrM-26" style="rounded=0;orthogonalLoop=1;jettySize=auto;html=1;endArrow=none;endFill=0;entryX=0.5;entryY=0;entryDx=0;entryDy=0;" parent="1" source="xTMbIJmY8bYaw_9mGzrM-22" target="xTMbIJmY8bYaw_9mGzrM-14" edge="1">
          <mxGeometry relative="1" as="geometry" />
        </mxCell>
        <mxCell id="xTMbIJmY8bYaw_9mGzrM-22" value="name" style="ellipse;shape=doubleEllipse;margin=3;whiteSpace=wrap;html=1;align=center;" parent="1" vertex="1">
          <mxGeometry x="376" y="293" width="74" height="39" as="geometry" />
        </mxCell>
        <mxCell id="xTMbIJmY8bYaw_9mGzrM-48" style="edgeStyle=orthogonalEdgeStyle;rounded=0;orthogonalLoop=1;jettySize=auto;html=1;endArrow=none;endFill=0;" parent="1" source="xTMbIJmY8bYaw_9mGzrM-30" target="xTMbIJmY8bYaw_9mGzrM-47" edge="1">
          <mxGeometry relative="1" as="geometry" />
        </mxCell>
        <mxCell id="xTMbIJmY8bYaw_9mGzrM-30" value="Customer" style="whiteSpace=wrap;html=1;align=center;" parent="1" vertex="1">
          <mxGeometry x="703.15" y="365" width="100" height="40" as="geometry" />
        </mxCell>
        <mxCell id="xTMbIJmY8bYaw_9mGzrM-33" style="rounded=0;orthogonalLoop=1;jettySize=auto;html=1;endArrow=none;endFill=0;exitX=0.5;exitY=1;exitDx=0;exitDy=0;" parent="1" source="xTMbIJmY8bYaw_9mGzrM-37" target="xTMbIJmY8bYaw_9mGzrM-35" edge="1">
          <mxGeometry relative="1" as="geometry">
            <mxPoint x="883.15" y="269" as="sourcePoint" />
          </mxGeometry>
        </mxCell>
        <mxCell id="xTMbIJmY8bYaw_9mGzrM-34" style="rounded=0;orthogonalLoop=1;jettySize=auto;html=1;endArrow=none;endFill=0;exitX=0.5;exitY=1;exitDx=0;exitDy=0;" parent="1" source="xTMbIJmY8bYaw_9mGzrM-36" edge="1">
          <mxGeometry relative="1" as="geometry">
            <mxPoint x="816.15" y="266" as="sourcePoint" />
            <mxPoint x="834.15" y="288" as="targetPoint" />
          </mxGeometry>
        </mxCell>
        <mxCell id="xTMbIJmY8bYaw_9mGzrM-38" style="rounded=0;orthogonalLoop=1;jettySize=auto;html=1;endArrow=none;endFill=0;" parent="1" source="xTMbIJmY8bYaw_9mGzrM-35" target="xTMbIJmY8bYaw_9mGzrM-30" edge="1">
          <mxGeometry relative="1" as="geometry" />
        </mxCell>
        <mxCell id="xTMbIJmY8bYaw_9mGzrM-35" value="name" style="ellipse;shape=doubleEllipse;margin=3;whiteSpace=wrap;html=1;align=center;" parent="1" vertex="1">
          <mxGeometry x="810.15" y="287" width="74" height="39" as="geometry" />
        </mxCell>
        <mxCell id="xTMbIJmY8bYaw_9mGzrM-36" value="last" style="ellipse;whiteSpace=wrap;html=1;align=center;" parent="1" vertex="1">
          <mxGeometry x="778.15" y="229" width="74" height="36" as="geometry" />
        </mxCell>
        <mxCell id="xTMbIJmY8bYaw_9mGzrM-37" value="first" style="ellipse;whiteSpace=wrap;html=1;align=center;" parent="1" vertex="1">
          <mxGeometry x="868.15" y="229" width="74" height="36" as="geometry" />
        </mxCell>
        <mxCell id="xTMbIJmY8bYaw_9mGzrM-40" style="rounded=0;orthogonalLoop=1;jettySize=auto;html=1;endArrow=none;endFill=0;" parent="1" source="xTMbIJmY8bYaw_9mGzrM-39" target="xTMbIJmY8bYaw_9mGzrM-30" edge="1">
          <mxGeometry relative="1" as="geometry" />
        </mxCell>
        <mxCell id="xTMbIJmY8bYaw_9mGzrM-39" value="&lt;u&gt;number&lt;/u&gt;" style="ellipse;whiteSpace=wrap;html=1;align=center;" parent="1" vertex="1">
          <mxGeometry x="858.15" y="329" width="74" height="36" as="geometry" />
        </mxCell>
        <mxCell id="xTMbIJmY8bYaw_9mGzrM-42" style="rounded=0;orthogonalLoop=1;jettySize=auto;html=1;entryX=1;entryY=0.25;entryDx=0;entryDy=0;endArrow=none;endFill=0;" parent="1" source="xTMbIJmY8bYaw_9mGzrM-41" target="xTMbIJmY8bYaw_9mGzrM-30" edge="1">
          <mxGeometry relative="1" as="geometry" />
        </mxCell>
        <mxCell id="xTMbIJmY8bYaw_9mGzrM-41" value="phone_number" style="ellipse;whiteSpace=wrap;html=1;align=center;" parent="1" vertex="1">
          <mxGeometry x="862.15" y="374" width="74" height="36" as="geometry" />
        </mxCell>
        <mxCell id="xTMbIJmY8bYaw_9mGzrM-44" style="rounded=0;orthogonalLoop=1;jettySize=auto;html=1;entryX=1;entryY=0.25;entryDx=0;entryDy=0;endArrow=none;endFill=0;" parent="1" source="xTMbIJmY8bYaw_9mGzrM-43" target="xTMbIJmY8bYaw_9mGzrM-30" edge="1">
          <mxGeometry relative="1" as="geometry" />
        </mxCell>
        <mxCell id="xTMbIJmY8bYaw_9mGzrM-43" value="email" style="ellipse;whiteSpace=wrap;html=1;align=center;" parent="1" vertex="1">
          <mxGeometry x="858.15" y="417" width="74" height="36" as="geometry" />
        </mxCell>
        <mxCell id="xTMbIJmY8bYaw_9mGzrM-57" style="rounded=0;orthogonalLoop=1;jettySize=auto;html=1;endArrow=none;endFill=0;exitX=0.5;exitY=1;exitDx=0;exitDy=0;" parent="1" source="xTMbIJmY8bYaw_9mGzrM-45" edge="1">
          <mxGeometry relative="1" as="geometry">
            <mxPoint x="686.0039251962427" y="746.1460748037573" as="targetPoint" />
          </mxGeometry>
        </mxCell>
        <mxCell id="xTMbIJmY8bYaw_9mGzrM-45" value="Order" style="whiteSpace=wrap;html=1;align=center;" parent="1" vertex="1">
          <mxGeometry x="703.15" y="638" width="100" height="40" as="geometry" />
        </mxCell>
        <mxCell id="xTMbIJmY8bYaw_9mGzrM-49" style="edgeStyle=orthogonalEdgeStyle;rounded=0;orthogonalLoop=1;jettySize=auto;html=1;endArrow=none;endFill=0;" parent="1" source="xTMbIJmY8bYaw_9mGzrM-47" target="xTMbIJmY8bYaw_9mGzrM-45" edge="1">
          <mxGeometry relative="1" as="geometry" />
        </mxCell>
        <mxCell id="xTMbIJmY8bYaw_9mGzrM-47" value="places" style="shape=rhombus;perimeter=rhombusPerimeter;whiteSpace=wrap;html=1;align=center;" parent="1" vertex="1">
          <mxGeometry x="693.15" y="488" width="120" height="60" as="geometry" />
        </mxCell>
        <mxCell id="xTMbIJmY8bYaw_9mGzrM-50" value="PlacedCustomer" style="ellipse;shape=doubleEllipse;margin=3;whiteSpace=wrap;html=1;align=center;" parent="1" vertex="1">
          <mxGeometry x="632" y="745" width="96" height="36" as="geometry" />
        </mxCell>
        <mxCell id="xTMbIJmY8bYaw_9mGzrM-54" style="rounded=0;orthogonalLoop=1;jettySize=auto;html=1;endArrow=none;endFill=0;entryX=0.5;entryY=1;entryDx=0;entryDy=0;" parent="1" source="xTMbIJmY8bYaw_9mGzrM-51" target="xTMbIJmY8bYaw_9mGzrM-50" edge="1">
          <mxGeometry relative="1" as="geometry" />
        </mxCell>
        <mxCell id="xTMbIJmY8bYaw_9mGzrM-51" value="customer" style="ellipse;whiteSpace=wrap;html=1;align=center;" parent="1" vertex="1">
          <mxGeometry x="538" y="819" width="74" height="36" as="geometry" />
        </mxCell>
        <mxCell id="xTMbIJmY8bYaw_9mGzrM-55" style="rounded=0;orthogonalLoop=1;jettySize=auto;html=1;entryX=0.5;entryY=1;entryDx=0;entryDy=0;endArrow=none;endFill=0;" parent="1" source="xTMbIJmY8bYaw_9mGzrM-52" target="xTMbIJmY8bYaw_9mGzrM-50" edge="1">
          <mxGeometry relative="1" as="geometry" />
        </mxCell>
        <mxCell id="xTMbIJmY8bYaw_9mGzrM-52" value="employee" style="ellipse;whiteSpace=wrap;html=1;align=center;" parent="1" vertex="1">
          <mxGeometry x="619.15" y="819" width="74" height="36" as="geometry" />
        </mxCell>
        <mxCell id="xTMbIJmY8bYaw_9mGzrM-56" style="rounded=0;orthogonalLoop=1;jettySize=auto;html=1;entryX=0.5;entryY=1;entryDx=0;entryDy=0;endArrow=none;endFill=0;" parent="1" source="xTMbIJmY8bYaw_9mGzrM-53" target="xTMbIJmY8bYaw_9mGzrM-50" edge="1">
          <mxGeometry relative="1" as="geometry" />
        </mxCell>
        <mxCell id="W7rrW-tQhRegGtTrBUPO-9" style="rounded=0;orthogonalLoop=1;jettySize=auto;html=1;endArrow=none;endFill=0;" edge="1" parent="1" source="xTMbIJmY8bYaw_9mGzrM-53" target="W7rrW-tQhRegGtTrBUPO-8">
          <mxGeometry relative="1" as="geometry" />
        </mxCell>
        <mxCell id="xTMbIJmY8bYaw_9mGzrM-53" value="part" style="ellipse;whiteSpace=wrap;html=1;align=center;" parent="1" vertex="1">
          <mxGeometry x="704.15" y="819" width="74" height="36" as="geometry" />
        </mxCell>
        <mxCell id="xTMbIJmY8bYaw_9mGzrM-63" style="rounded=0;orthogonalLoop=1;jettySize=auto;html=1;endArrow=none;endFill=0;exitX=0.5;exitY=1;exitDx=0;exitDy=0;" parent="1" source="xTMbIJmY8bYaw_9mGzrM-58" target="xTMbIJmY8bYaw_9mGzrM-60" edge="1">
          <mxGeometry relative="1" as="geometry" />
        </mxCell>
        <mxCell id="xTMbIJmY8bYaw_9mGzrM-64" style="rounded=0;orthogonalLoop=1;jettySize=auto;html=1;endArrow=none;endFill=0;exitX=0.5;exitY=1;exitDx=0;exitDy=0;" parent="1" source="xTMbIJmY8bYaw_9mGzrM-58" target="xTMbIJmY8bYaw_9mGzrM-61" edge="1">
          <mxGeometry relative="1" as="geometry" />
        </mxCell>
        <mxCell id="xTMbIJmY8bYaw_9mGzrM-58" value="date" style="ellipse;shape=doubleEllipse;margin=3;whiteSpace=wrap;html=1;align=center;" parent="1" vertex="1">
          <mxGeometry x="772.15" y="745" width="96" height="36" as="geometry" />
        </mxCell>
        <mxCell id="xTMbIJmY8bYaw_9mGzrM-59" style="rounded=0;orthogonalLoop=1;jettySize=auto;html=1;entryX=0.5;entryY=1;entryDx=0;entryDy=0;endArrow=none;endFill=0;" parent="1" source="xTMbIJmY8bYaw_9mGzrM-58" target="xTMbIJmY8bYaw_9mGzrM-45" edge="1">
          <mxGeometry relative="1" as="geometry" />
        </mxCell>
        <mxCell id="xTMbIJmY8bYaw_9mGzrM-60" value="expected" style="ellipse;whiteSpace=wrap;html=1;align=center;" parent="1" vertex="1">
          <mxGeometry x="797.15" y="819" width="74" height="36" as="geometry" />
        </mxCell>
        <mxCell id="xTMbIJmY8bYaw_9mGzrM-61" value="actual" style="ellipse;whiteSpace=wrap;html=1;align=center;" parent="1" vertex="1">
          <mxGeometry x="879.15" y="819" width="74" height="36" as="geometry" />
        </mxCell>
        <mxCell id="xTMbIJmY8bYaw_9mGzrM-65" style="rounded=0;orthogonalLoop=1;jettySize=auto;html=1;endArrow=none;endFill=0;entryX=0.5;entryY=1;entryDx=0;entryDy=0;" parent="1" source="xTMbIJmY8bYaw_9mGzrM-62" target="xTMbIJmY8bYaw_9mGzrM-58" edge="1">
          <mxGeometry relative="1" as="geometry" />
        </mxCell>
        <mxCell id="xTMbIJmY8bYaw_9mGzrM-62" value="receipt" style="ellipse;whiteSpace=wrap;html=1;align=center;" parent="1" vertex="1">
          <mxGeometry x="961.15" y="819" width="74" height="36" as="geometry" />
        </mxCell>
        <mxCell id="W7rrW-tQhRegGtTrBUPO-13" style="edgeStyle=orthogonalEdgeStyle;rounded=0;orthogonalLoop=1;jettySize=auto;html=1;endArrow=none;endFill=0;" edge="1" parent="1" source="f_OXT4lfnCJNDgT4wejp-2" target="W7rrW-tQhRegGtTrBUPO-12">
          <mxGeometry relative="1" as="geometry" />
        </mxCell>
        <mxCell id="f_OXT4lfnCJNDgT4wejp-2" value="Part" style="whiteSpace=wrap;html=1;align=center;" parent="1" vertex="1">
          <mxGeometry x="286" y="638" width="100" height="40" as="geometry" />
        </mxCell>
        <mxCell id="f_OXT4lfnCJNDgT4wejp-8" style="rounded=0;orthogonalLoop=1;jettySize=auto;html=1;endArrow=none;endFill=0;entryX=0.5;entryY=1;entryDx=0;entryDy=0;" parent="1" source="f_OXT4lfnCJNDgT4wejp-3" target="f_OXT4lfnCJNDgT4wejp-2" edge="1">
          <mxGeometry relative="1" as="geometry" />
        </mxCell>
        <mxCell id="f_OXT4lfnCJNDgT4wejp-3" value="&lt;u&gt;number&lt;/u&gt;" style="ellipse;whiteSpace=wrap;html=1;align=center;" parent="1" vertex="1">
          <mxGeometry x="188" y="714" width="74" height="36" as="geometry" />
        </mxCell>
        <mxCell id="f_OXT4lfnCJNDgT4wejp-11" style="rounded=0;orthogonalLoop=1;jettySize=auto;html=1;endArrow=none;endFill=0;entryX=0.5;entryY=1;entryDx=0;entryDy=0;" parent="1" source="f_OXT4lfnCJNDgT4wejp-5" target="f_OXT4lfnCJNDgT4wejp-2" edge="1">
          <mxGeometry relative="1" as="geometry" />
        </mxCell>
        <mxCell id="f_OXT4lfnCJNDgT4wejp-5" value="quantity" style="ellipse;whiteSpace=wrap;html=1;align=center;" parent="1" vertex="1">
          <mxGeometry x="419" y="714" width="74" height="36" as="geometry" />
        </mxCell>
        <mxCell id="f_OXT4lfnCJNDgT4wejp-9" style="rounded=0;orthogonalLoop=1;jettySize=auto;html=1;entryX=0.5;entryY=1;entryDx=0;entryDy=0;endArrow=none;endFill=0;" parent="1" source="f_OXT4lfnCJNDgT4wejp-6" target="f_OXT4lfnCJNDgT4wejp-2" edge="1">
          <mxGeometry relative="1" as="geometry" />
        </mxCell>
        <mxCell id="f_OXT4lfnCJNDgT4wejp-6" value="name" style="ellipse;whiteSpace=wrap;html=1;align=center;" parent="1" vertex="1">
          <mxGeometry x="264" y="714" width="74" height="36" as="geometry" />
        </mxCell>
        <mxCell id="f_OXT4lfnCJNDgT4wejp-10" style="rounded=0;orthogonalLoop=1;jettySize=auto;html=1;entryX=0.5;entryY=1;entryDx=0;entryDy=0;endArrow=none;endFill=0;" parent="1" source="f_OXT4lfnCJNDgT4wejp-7" target="f_OXT4lfnCJNDgT4wejp-2" edge="1">
          <mxGeometry relative="1" as="geometry" />
        </mxCell>
        <mxCell id="f_OXT4lfnCJNDgT4wejp-7" value="price" style="ellipse;whiteSpace=wrap;html=1;align=center;" parent="1" vertex="1">
          <mxGeometry x="341" y="714" width="74" height="36" as="geometry" />
        </mxCell>
        <mxCell id="f_OXT4lfnCJNDgT4wejp-14" style="rounded=0;orthogonalLoop=1;jettySize=auto;html=1;entryX=0.5;entryY=1;entryDx=0;entryDy=0;endArrow=none;endFill=0;" parent="1" source="f_OXT4lfnCJNDgT4wejp-13" target="xTMbIJmY8bYaw_9mGzrM-45" edge="1">
          <mxGeometry relative="1" as="geometry" />
        </mxCell>
        <mxCell id="f_OXT4lfnCJNDgT4wejp-13" value="&lt;u&gt;number&lt;/u&gt;" style="ellipse;whiteSpace=wrap;html=1;align=center;" parent="1" vertex="1">
          <mxGeometry x="877" y="707" width="74" height="36" as="geometry" />
        </mxCell>
        <mxCell id="W7rrW-tQhRegGtTrBUPO-5" style="edgeStyle=orthogonalEdgeStyle;rounded=0;orthogonalLoop=1;jettySize=auto;html=1;endArrow=none;endFill=0;" edge="1" parent="1" source="W7rrW-tQhRegGtTrBUPO-1" target="xTMbIJmY8bYaw_9mGzrM-30">
          <mxGeometry relative="1" as="geometry" />
        </mxCell>
        <mxCell id="W7rrW-tQhRegGtTrBUPO-1" value="manages" style="shape=rhombus;perimeter=rhombusPerimeter;whiteSpace=wrap;html=1;align=center;" vertex="1" parent="1">
          <mxGeometry x="487" y="355" width="120" height="60" as="geometry" />
        </mxCell>
        <mxCell id="W7rrW-tQhRegGtTrBUPO-6" value="(0,N)" style="text;html=1;align=center;verticalAlign=middle;whiteSpace=wrap;rounded=0;" vertex="1" parent="1">
          <mxGeometry x="394" y="358" width="60" height="30" as="geometry" />
        </mxCell>
        <mxCell id="W7rrW-tQhRegGtTrBUPO-7" value="(1,N)" style="text;html=1;align=center;verticalAlign=middle;whiteSpace=wrap;rounded=0;" vertex="1" parent="1">
          <mxGeometry x="646" y="360" width="60" height="30" as="geometry" />
        </mxCell>
        <mxCell id="W7rrW-tQhRegGtTrBUPO-8" value="quantity" style="ellipse;whiteSpace=wrap;html=1;align=center;" vertex="1" parent="1">
          <mxGeometry x="706" y="889" width="74" height="36" as="geometry" />
        </mxCell>
        <mxCell id="W7rrW-tQhRegGtTrBUPO-10" value="(1,N)" style="text;html=1;align=center;verticalAlign=middle;whiteSpace=wrap;rounded=0;" vertex="1" parent="1">
          <mxGeometry x="743.15" y="405" width="59.85" height="30" as="geometry" />
        </mxCell>
        <mxCell id="W7rrW-tQhRegGtTrBUPO-11" value="(1,N)" style="text;html=1;align=center;verticalAlign=middle;whiteSpace=wrap;rounded=0;" vertex="1" parent="1">
          <mxGeometry x="747.3" y="608" width="59.85" height="30" as="geometry" />
        </mxCell>
        <mxCell id="W7rrW-tQhRegGtTrBUPO-14" style="edgeStyle=orthogonalEdgeStyle;rounded=0;orthogonalLoop=1;jettySize=auto;html=1;entryX=0;entryY=0.5;entryDx=0;entryDy=0;endArrow=none;endFill=0;" edge="1" parent="1" source="W7rrW-tQhRegGtTrBUPO-12" target="xTMbIJmY8bYaw_9mGzrM-45">
          <mxGeometry relative="1" as="geometry" />
        </mxCell>
        <mxCell id="W7rrW-tQhRegGtTrBUPO-12" value="Contains" style="shape=rhombus;perimeter=rhombusPerimeter;whiteSpace=wrap;html=1;align=center;" vertex="1" parent="1">
          <mxGeometry x="492" y="628" width="120" height="60" as="geometry" />
        </mxCell>
        <mxCell id="W7rrW-tQhRegGtTrBUPO-15" value="(1,N)" style="text;html=1;align=center;verticalAlign=middle;whiteSpace=wrap;rounded=0;" vertex="1" parent="1">
          <mxGeometry x="640" y="631" width="59.85" height="30" as="geometry" />
        </mxCell>
        <mxCell id="W7rrW-tQhRegGtTrBUPO-16" value="(0,N)" style="text;html=1;align=center;verticalAlign=middle;whiteSpace=wrap;rounded=0;" vertex="1" parent="1">
          <mxGeometry x="393.99999999999994" y="628" width="59.85" height="30" as="geometry" />
        </mxCell>
      </root>
    </mxGraphModel>
  </diagram>
</mxfile>
